:SAMPLES-PER-SECOND 30
:FULLY-SPECIFIED
:DEGREES
93
root  -9.14152 37.1169 10.1913 176.313 -54.5529 179.203
RightUpLeg  9.32716 -10.3757 -19.6517
RightLeg  48.4653 -0.559312 -0.956577
RightFoot  1.6065 -1.80931 16.1184
RightToes  -1.16417e-010 0 -3.6325e-017
Spine  10.4481 2.18433 -1.63194
Spine1  6.4064 3.12767 -3.80447
HEad  -12.7412 -26.4519 22.173
LeftShoulder1  6.32965 -9.5583 -42.057
LeftArm  -13.5319 41.1403 -32.3422
LeftForeArm  29.2649 -10.3189 -3.70458
LeftHand  -0.244104 0.0205437 5.32207
RightShoulder  4.69324 7.16616 37.9397
RightArm  -38.501 -10.9876 24.7907
RightForeArm  -54.9382 62.2342 25.4457
RightHand  -6.43273 16.377 -33.6536
LeftUpLeg  -27.7063 15.7071 -11.0681
LeftLeg  38.666 12.1339 10.5665
LeftFoot  -9.15985 -0.247719 15.3592
LeftToes  4.18335e-011 -7.14095e-012 4.81992e-012
94
root  -10.6231 37.0033 9.97115 175.647 -56.0794 178.367
RightUpLeg  2.09237 -6.28107 -18.777
RightLeg  61.3908 -0.613689 -1.66242
RightFoot  8.62757 -1.68303 9.6803
RightToes  -1.16417e-010 0 -3.6325e-017
Spine  11.8679 2.29011 -5.55166
Spine1  6.36578 1.87482 0.0877438
HEad  -14.1051 -25.6713 23.423
LeftShoulder1  6.42935 -9.71645 -42.219
LeftArm  -12.8698 35.6566 -32.5721
LeftForeArm  31.2752 -15.446 -3.58215
LeftHand  -0.244104 0.0205437 5.32207
RightShoulder  5.03487 7.71593 38.7932
RightArm  -38.7714 -9.56591 26.2642
RightForeArm  -56.8512 62.2572 25.4837
RightHand  -6.80416 17.1929 -34.2491
LeftUpLeg  -24.7225 16.7273 -12.0466
LeftLeg  40.7425 10.6014 10.0255
LeftFoot  -12.8915 0.279886 14.7513
LeftToes  4.18335e-011 -7.14095e-012 4.81992e-012
95
root  -12.0914 37.3435 9.83136 174.109 -58.8785 179.264
RightUpLeg  -4.318 -4.25076 -16.7287
RightLeg  69.7638 -0.183171 -1.40662
RightFoot  8.74557 -1.17779 6.95202
RightToes  -1.16417e-010 0 -3.6325e-017
Spine  12.1001 1.54371 -7.4774
Spine1  6.87483 0.0518215 3.54636
HEad  -14.4551 -23.3997 24.0597
LeftShoulder1  6.80171 -10.1745 -43.2265
LeftArm  -12.3622 29.0856 -31.9571
LeftForeArm  31.1662 -21.3855 -3.29394
LeftHand  -0.244104 0.0205437 5.32207
RightShoulder  5.38356 8.26732 39.6167
RightArm  -37.7959 -7.1363 27.5396
RightForeArm  -58.5193 60.9567 24.1251
RightHand  -6.23235 16.0822 -33.0719
LeftUpLeg  -19.8824 16.8257 -12.1064
LeftLeg  38.3188 9.43125 8.28662
LeftFoot  -14.7932 0.55116 15.228
LeftToes  4.18335e-011 -7.14095e-012 4.81992e-012
96
root  -13.5765 38.2224 9.84026 170.057 -61.9506 -176.869
RightUpLeg  -9.63094 -3.05201 -13.0214
RightLeg  72.5911 -0.499617 -2.7645
RightFoot  5.44674 -0.906214 6.40506
RightToes  -1.16417e-010 0 -3.6325e-017
Spine  11.8379 0.531302 -5.89455
Spine1  7.76297 -1.32153 5.50482
HEad  -14.3517 -21.1116 23.6816
LeftShoulder1  7.45956 -10.9534 -44.948
LeftArm  -11.7997 20.9286 -30.4257
LeftForeArm  31.2876 -26.3969 -3.95986
LeftHand  -0.244104 0.0205437 5.32207
RightShoulder  5.6144 8.66903 39.9863
RightArm  -36.2633 -5.42179 28.4004
RightForeArm  -59.5541 59.2854 22.5306
RightHand  -5.66109 14.9059 -31.8838
LeftUpLeg  -12.9825 15.9 -10.5602
LeftLeg  31.4505 8.91909 6.20751
LeftFoot  -13.6531 0.420547 17.0103
LeftToes  4.18335e-011 -7.14095e-012 4.81992e-012
97
root  -15.0082 39.294 9.93363 164.644 -64.7081 -171.192
RightUpLeg  -14.5774 -1.67381 -8.68838
RightLeg  71.0336 -1.39856 -5.39533
RightFoot  2.60513 -0.67924 5.67221
RightToes  -1.16417e-010 0 -3.6325e-017
Spine  11.6494 -0.178262 -2.42575
Spine1  7.70448 -1.94138 6.15975
HEad  -13.7727 -19.8133 21.7401
LeftShoulder1  8.05222 -11.5926 -46.5284
LeftArm  -9.77146 12.038 -29.2024
LeftForeArm  31.2329 -30.2104 -4.84899
LeftHand  -0.244104 0.0205437 5.32207
RightShoulder  5.61181 8.74011 39.7094
RightArm  -35.7436 -5.30579 29.357
RightForeArm  -59.5726 58.6299 21.96
RightHand  -5.61894 14.8635 -31.7172
LeftUpLeg  -6.29416 15.1374 -8.30287
LeftLeg  23.5143 6.54574 3.50192
LeftFoot  -9.80631 -0.154818 16.9067
LeftToes  4.18335e-011 -7.14095e-012 4.81992e-012
98
root  -16.3796 40.246 10.0068 159.587 -68.241 -165.053
RightUpLeg  -19.5771 -1.19391 -5.26388
RightLeg  66.8565 -2.48822 -7.09104
RightFoot  0.707566 -0.364983 3.49635
RightToes  -1.16417e-010 0 -3.6325e-017
Spine  11.5648 -1.0951 0.217243
Spine1  5.65933 -2.72971 6.87574
HEad  -12.5012 -18.8626 18.8605
LeftShoulder1  8.34876 -11.7995 -47.6114
LeftArm  -8.54677 4.41064 -28.9972
LeftForeArm  31.7883 -34.3192 -5.81685
LeftHand  -0.244104 0.0205437 5.32207
RightShoulder  5.46495 8.53106 39.3069
RightArm  -37.0787 -5.89237 30.5016
RightForeArm  -57.6703 59.0698 22.3364
RightHand  -5.58627 14.9384 -31.4303
LeftUpLeg  -1.96586 14.5641 -6.31301
LeftLeg  17.9775 2.01912 0.919865
LeftFoot  -5.42476 -0.574563 11.939
LeftToes  4.18335e-011 -7.14095e-012 4.81992e-012
